<svg data-v-1084b650="" xmlns="http://www.w3.org/2000/svg" viewBox="0 0 300 300"><!----> <!----> <rect data-v-1084b650="" fill="#ffffff" x="0" y="0" width="300px" height="300px" class="logo-background-square"></rect> <!----> <g data-v-1084b650="" id="6d023aed-b126-e0e1-c4ab-93026fccb160" fill="#000000" transform="matrix(2.8,0,0,2.8,95.77314951419831,122.44800424575806)"><path d="M8.18 6.36C7.01 6.36 6.43 6.80 6.01 7.41C5.59 6.66 4.86 6.36 4.10 6.36C3.34 6.36 2.65 6.72 2.27 7.38L2.11 6.53L0.88 6.53L0.88 13.15L2.29 13.15L2.29 9.26C2.38 8.15 2.90 7.57 3.75 7.57C4.65 7.57 5.02 8.31 5.02 9.39L5.02 13.15L6.43 13.15L6.43 9.60C6.43 8.30 6.96 7.57 7.88 7.57C8.79 7.57 9.16 8.31 9.16 9.38L9.16 13.15L10.57 13.15L10.57 9.28C10.57 7.12 9.44 6.36 8.18 6.36ZM18.55 9.70C18.55 7.73 17.22 6.36 15.30 6.36C13.31 6.36 11.89 7.89 11.89 9.84C11.89 11.80 13.30 13.31 15.47 13.31C16.61 13.31 17.57 12.92 18.17 12.25L17.19 11.46C16.77 11.94 16.20 12.19 15.46 12.19C14.22 12.19 13.47 11.33 13.37 10.15L18.55 10.15ZM15.30 7.50C16.33 7.50 17.00 8.12 17.15 9.17L13.43 9.17C13.64 8.17 14.32 7.50 15.30 7.50ZM26.25 9.70C26.25 7.73 24.92 6.36 23.00 6.36C21.01 6.36 19.59 7.89 19.59 9.84C19.59 11.80 21 13.31 23.17 13.31C24.31 13.31 25.27 12.92 25.87 12.25L24.89 11.46C24.47 11.94 23.90 12.19 23.16 12.19C21.92 12.19 21.18 11.33 21.07 10.15L26.25 10.15ZM23.00 7.50C24.03 7.50 24.70 8.12 24.85 9.17L21.13 9.17C21.34 8.17 22.02 7.50 23.00 7.50ZM30.80 6.53L29.39 6.53L29.39 4.64L27.99 4.64L27.99 6.53L27.11 6.53L27.11 7.67L27.99 7.67L27.99 13.15L29.40 13.15L29.39 7.67L30.80 7.67ZM34.75 13.33C36.20 13.33 37.71 12.67 37.71 10.31L37.71 6.53L36.30 6.53L36.30 10.32C36.30 11.43 35.76 12.12 34.75 12.12C33.75 12.12 33.21 11.43 33.21 10.32L33.21 6.53L31.79 6.53L31.79 10.31C31.79 12.67 33.31 13.33 34.75 13.33ZM43.02 6.36C42.03 6.36 41.27 6.77 40.75 7.42L40.63 6.53L39.39 6.53L39.39 16.22L40.80 16.22L40.80 12.32C41.31 12.94 42.06 13.31 43.02 13.31C44.74 13.31 46.11 12.00 46.11 9.84C46.11 7.69 44.74 6.36 43.02 6.36ZM42.69 12.12C41.45 12.12 40.64 11.14 40.64 9.84C40.64 8.55 41.45 7.55 42.69 7.55C43.88 7.55 44.67 8.55 44.67 9.84C44.67 11.14 43.88 12.12 42.69 12.12ZM48.42 13.29C48.93 13.29 49.34 12.88 49.34 12.38C49.34 11.89 48.93 11.48 48.42 11.48C47.92 11.48 47.51 11.89 47.51 12.38C47.51 12.88 47.92 13.29 48.42 13.29ZM51.96 5.26C52.47 5.26 52.88 4.86 52.88 4.36C52.88 3.86 52.47 3.46 51.96 3.46C51.46 3.46 51.06 3.86 51.06 4.36C51.06 4.86 51.46 5.26 51.96 5.26ZM51.29 13.15L52.68 13.15L52.68 6.53L51.29 6.53ZM57.79 13.34C59.88 13.34 61.34 11.81 61.34 9.84C61.34 7.89 59.88 6.36 57.79 6.36C55.68 6.36 54.24 7.89 54.24 9.84C54.24 11.81 55.68 13.34 57.79 13.34ZM57.79 12.13C56.57 12.13 55.71 11.14 55.71 9.84C55.71 8.56 56.57 7.57 57.79 7.57C59.00 7.57 59.86 8.56 59.86 9.84C59.86 11.14 59.00 12.13 57.79 12.13Z"></path></g> <linearGradient data-v-1084b650="" gradientTransform="rotate(25)" id="37a9836f-aa6d-ddf1-f36f-83d314d2f239" x1="0%" y1="0%" x2="100%" y2="0%"><stop data-v-1084b650="" offset="0%" style="stop-color: rgb(0, 102, 120); stop-opacity: 1;"></stop> <stop data-v-1084b650="" offset="100%" style="stop-color: rgb(79, 168, 255); stop-opacity: 1;"></stop></linearGradient> <g data-v-1084b650="" id="90e54da3-4325-33cd-ff17-06e79d0c7227" fill="url(#37a9836f-aa6d-ddf1-f36f-83d314d2f239)" stroke="none" transform="matrix(0.1997660230636653,0,0,0.1997660230636653,29.91450429764129,121.03321090321585)"><svg xmlns="http://www.w3.org/2000/svg" viewBox="0 0 90 90"><path d="M53.843 61.267c.213-1.066.427-2.131.625-3.195l.243-1.279c.656-3.415 1.334-6.946.623-10.458l-.086-.436c-.396-1.987-1.054-5.315-2.632-6.185-.01-.006-.017-.015-.043-.027-.016-.011-.023-.027-.037-.04-.021-.021-.041-.039-.057-.062-.014-.022-.023-.045-.033-.068a.347.347 0 0 1-.029-.073c-.005-.025-.005-.051-.005-.077-.001-.026-.003-.052.002-.077.005-.028.015-.053.024-.08.008-.017.008-.035.043-.095 1.22-1.678 1.602-9.667.561-11.711-.118-.233-.211-.283-.227-.283-1.023 0-1.984 1.843-2.91 3.625-1.023 1.96-2.08 3.985-3.575 4.324-.509.114-1.027.021-1.55-.265-.19.303-.457.605-.814.919-.972.854-3.076 2.301-4.798 2.301-.933 0-1.655-.421-2.092-1.22a14.435 14.435 0 0 1-.506-1.03c-2.292.812-4.556 2.273-6.75 3.696-.812.526-1.605 1.041-2.378 1.509-.811.489-1.691.98-2.601 1.487-3.427 1.911-7.31 4.078-9.178 7.197-1.165 1.944-.141 4.41.803 6.224.27.518.64 1.089 1.099 1.461.657.533 1.717.121 2.412-.089.915-.276 1.754-.706 2.562-1.214.402-.252.784-.534 1.147-.84.174-.146.702.479.53.626-1.201 1.014-2.978 2.056-4.81 2.429 1.416.201 3.121-.15 4.709-.479a32.07 32.07 0 0 1 1.976-.367c.862-.12 1.748-.19 2.604-.26 1.46-.116 2.97-.238 4.386-.607.149-.039.363-.108.614-.188 1.335-.424 2.492-.757 3.146-.518 1.697.622.792 5.297-1.604 14.283-.453 1.7-.812 3.043-.891 3.6-.176 1.21-.004 2.099.526 2.712.927 1.074 2.919 1.23 4.933 1.24 4.052.02 8.343-.047 12.521-.994a32.19 32.19 0 0 1-.13-3.029c.004-4.179.839-8.352 1.647-12.387zm-13.787-15.93c-1.505.542-2.674-1.924-.423-1.839.067.003.13.011.187.021.794.176 1.048 1.526.236 1.818zm11.838-9.297c-.209.8-.424 1.627-.537 2.446-.029.205-.844.111-.812-.112.12-.866.342-1.717.557-2.541.102-.392.203-.784.294-1.178l.042-.17c.402-1.64.248-1.957.191-2.017.002.006-.047.003-.139.033-.52.173-1.039.82-1.457 1.339-.119.148-.231.288-.34.413-.121.142-.258.339-.409.555-.481.688-1.026 1.47-1.726 1.632-.214.053-.404-.749-.185-.8.391-.09.901-.819 1.239-1.303.168-.241.322-.461.459-.62.103-.117.209-.251.322-.39.484-.604 1.09-1.355 1.837-1.604.487-.162.788-.011.954.142.556.514.316 1.723.049 2.815l-.038.159c-.092.401-.197.802-.301 1.201z"></path><path d="M57.571 59.387c.116-.986.228-1.932.316-2.818.06-.593.135-1.233.212-1.909.697-5.988 1.635-14.145-4.35-16.493a6.334 6.334 0 0 1-.39 1.058c1.648 1.256 2.271 4.394 2.691 6.515l.086.434c.742 3.669.051 7.282-.621 10.775l-.242 1.274c-.199 1.067-.414 2.137-.627 3.206-.799 3.996-1.625 8.127-1.631 12.227-.005 5.686 1.212 9.03 3.613 9.95.862.365 2.484-.092 3.365-.342l.672-.184c.979-.258 1.908-.508 2.549-1.1-7.823-4.034-6.568-14.742-5.643-22.593z"></path><path d="M64.028 76.182c-3.672-5.864-3.047-12.997-2.442-19.896.153-1.743.299-3.393.372-5.003.102-2.242.166-9.806-3.288-13.032-1.211-1.134-2.769-1.614-4.612-1.451-.034.193-.069.38-.109.561 6.688 2.523 5.656 11.458 4.966 17.393-.078.673-.152 1.309-.21 1.896-.09.892-.201 1.843-.317 2.834-.899 7.629-2.121 18.037 5.259 21.792.007 0 .022-.004.022-.004 1.042 0 1.83-.074 2.767-.451.39-.156 1.16-.76 1.591-1.285-1.546-.391-3.22-2.112-3.999-3.354z"></path><path d="M74.156 73.83a6.804 6.804 0 0 1-1.8-.25c-7.953-2.293-7.883-12.447-7.836-19.165.002-.499.005-.981.005-1.44 0-4.536-.005-11.077-4.296-14.154 2.614 3.673 2.668 9.821 2.547 12.5-.074 1.629-.219 3.284-.373 5.038-.593 6.765-1.204 13.757 2.319 19.389.768 1.226 2.508 2.955 3.801 3.056 1.855-.047 3.842-1.916 4.419-2.506l.132-.133c.47-.471 1.454-1.468 1.782-2.384-.224.031-.46.049-.7.049zM36.358 33.175c.195.489.386.947.575 1.386l.058.135c.247.574.504 1.169.805 1.716.291.533.74.793 1.372.793 1.479 0 3.432-1.371 4.257-2.096.389-.341.641-.65.775-.948a.399.399 0 0 1 .06-.172c.328-.998-.292-2.277-.804-3.316-.118-.242-.231-.473-.33-.689a.049.049 0 0 0-.004-.011c-1.477 1.401-3.236 1.998-5.09 2.615-.549.182-1.111.374-1.674.587zM34.58 28.449c.412 1.135.831 2.267 1.26 3.396.074.197.146.381.219.566a48.717 48.717 0 0 1 1.715-.603c1.85-.615 3.595-1.207 4.98-2.625a110.614 110.614 0 0 0-1.993-4.112c-.027-.055-.059-.111-.087-.165-1.752 1.352-4.234 2.425-6.369 2.756.092.262.18.526.275.787zM32.938 23.717l.29.855c.262.771.535 1.535.804 2.302 2.056-.286 4.581-1.377 6.255-2.706a140.716 140.716 0 0 0-2.146-3.946c-1.896 1.316-3.496 1.664-5.716 1.969.17.507.338 1.018.513 1.526zM28.443 9.315c.214.718.417 1.437.62 2.155l.342 1.202c.334 1.165.7 2.319 1.066 3.474l.491 1.556c.301.956.602 1.913.914 2.867.091.276.188.553.28.83 2.262-.305 3.752-.61 5.571-1.89a160.318 160.318 0 0 0-2.438-4.109c-.717-1.165-1.235-2.056-1.739-2.921-.6-1.027-1.163-1.997-2.015-3.354l-.205-.331c-2.961-4.799-3.806-5.468-4.03-5.534-.335.496.001 2.355.988 5.555l.155.5z"></path></svg></g></svg>